<svg width="159" height="20" viewBox="0 0 159 20" fill="none" xmlns="http://www.w3.org/2000/svg">
<path d="M10 19C14.9706 19 19 14.9706 19 10C19 5.02944 14.9706 1 10 1C5.02944 1 1 5.02944 1 10C1 14.9706 5.02944 19 10 19Z" stroke="#0B0824" stroke-width="2" stroke-linecap="round" stroke-linejoin="round"/>
<path d="M10 6.39999V13.6" stroke="#0B0824" stroke-width="2" stroke-linecap="round" stroke-linejoin="round"/>
<path d="M6.39999 10H13.6" stroke="#0B0824" stroke-width="2" stroke-linecap="round" stroke-linejoin="round"/>
<path d="M31.802 14.21H26.33L25.322 17H23.594L28.13 4.526H30.02L34.538 17H32.81L31.802 14.21ZM31.334 12.878L29.066 6.542L26.798 12.878H31.334ZM36.9829 12.032C36.9829 11.024 37.1869 10.142 37.5949 9.386C38.0029 8.618 38.5609 8.024 39.2689 7.604C39.9889 7.184 40.7929 6.974 41.6809 6.974C42.4489 6.974 43.1629 7.154 43.8229 7.514C44.4829 7.862 44.9869 8.324 45.3349 8.9V3.68H46.9909V17H45.3349V15.146C45.0109 15.734 44.5309 16.22 43.8949 16.604C43.2589 16.976 42.5149 17.162 41.6629 17.162C40.7869 17.162 39.9889 16.946 39.2689 16.514C38.5609 16.082 38.0029 15.476 37.5949 14.696C37.1869 13.916 36.9829 13.028 36.9829 12.032ZM45.3349 12.05C45.3349 11.306 45.1849 10.658 44.8849 10.106C44.5849 9.554 44.1769 9.134 43.6609 8.846C43.1569 8.546 42.5989 8.396 41.9869 8.396C41.3749 8.396 40.8169 8.54 40.3129 8.828C39.8089 9.116 39.4069 9.536 39.1069 10.088C38.8069 10.64 38.6569 11.288 38.6569 12.032C38.6569 12.788 38.8069 13.448 39.1069 14.012C39.4069 14.564 39.8089 14.99 40.3129 15.29C40.8169 15.578 41.3749 15.722 41.9869 15.722C42.5989 15.722 43.1569 15.578 43.6609 15.29C44.1769 14.99 44.5849 14.564 44.8849 14.012C45.1849 13.448 45.3349 12.794 45.3349 12.05ZM50.227 12.032C50.227 11.024 50.431 10.142 50.839 9.386C51.247 8.618 51.805 8.024 52.513 7.604C53.233 7.184 54.037 6.974 54.925 6.974C55.693 6.974 56.407 7.154 57.067 7.514C57.727 7.862 58.231 8.324 58.579 8.9V3.68H60.235V17H58.579V15.146C58.255 15.734 57.775 16.22 57.139 16.604C56.503 16.976 55.759 17.162 54.907 17.162C54.031 17.162 53.233 16.946 52.513 16.514C51.805 16.082 51.247 15.476 50.839 14.696C50.431 13.916 50.227 13.028 50.227 12.032ZM58.579 12.05C58.579 11.306 58.429 10.658 58.129 10.106C57.829 9.554 57.421 9.134 56.905 8.846C56.401 8.546 55.843 8.396 55.231 8.396C54.619 8.396 54.061 8.54 53.557 8.828C53.053 9.116 52.651 9.536 52.351 10.088C52.051 10.64 51.901 11.288 51.901 12.032C51.901 12.788 52.051 13.448 52.351 14.012C52.651 14.564 53.053 14.99 53.557 15.29C54.061 15.578 54.619 15.722 55.231 15.722C55.843 15.722 56.401 15.578 56.905 15.29C57.421 14.99 57.829 14.564 58.129 14.012C58.429 13.448 58.579 12.794 58.579 12.05ZM74.7679 6.956C75.9679 6.956 76.9399 7.322 77.6839 8.054C78.4279 8.774 78.7999 9.818 78.7999 11.186V17H77.1799V11.42C77.1799 10.436 76.9339 9.686 76.4419 9.17C75.9499 8.642 75.2779 8.378 74.4259 8.378C73.5619 8.378 72.8719 8.648 72.3559 9.188C71.8519 9.728 71.5999 10.514 71.5999 11.546V17H69.9619V7.136H71.5999V8.54C71.9239 8.036 72.3619 7.646 72.9139 7.37C73.4779 7.094 74.0959 6.956 74.7679 6.956ZM91.5555 11.69C91.5555 12.002 91.5375 12.332 91.5015 12.68H83.6175C83.6775 13.652 84.0075 14.414 84.6075 14.966C85.2195 15.506 85.9575 15.776 86.8215 15.776C87.5295 15.776 88.1175 15.614 88.5855 15.29C89.0655 14.954 89.4015 14.51 89.5935 13.958H91.3575C91.0935 14.906 90.5655 15.68 89.7735 16.28C88.9815 16.868 87.9975 17.162 86.8215 17.162C85.8855 17.162 85.0455 16.952 84.3015 16.532C83.5695 16.112 82.9935 15.518 82.5735 14.75C82.1535 13.97 81.9435 13.07 81.9435 12.05C81.9435 11.03 82.1475 10.136 82.5555 9.368C82.9635 8.6 83.5335 8.012 84.2655 7.604C85.0095 7.184 85.8615 6.974 86.8215 6.974C87.7575 6.974 88.5855 7.178 89.3055 7.586C90.0255 7.994 90.5775 8.558 90.9615 9.278C91.3575 9.986 91.5555 10.79 91.5555 11.69ZM89.8635 11.348C89.8635 10.724 89.7255 10.19 89.4495 9.746C89.1735 9.29 88.7955 8.948 88.3155 8.72C87.8475 8.48 87.3255 8.36 86.7495 8.36C85.9215 8.36 85.2135 8.624 84.6255 9.152C84.0495 9.68 83.7195 10.412 83.6355 11.348H89.8635ZM107.938 7.136L104.86 17H103.168L100.792 9.17L98.4156 17H96.7236L93.6276 7.136H95.3016L97.5696 15.416L100.018 7.136H101.692L104.086 15.434L106.318 7.136H107.938ZM118.52 8.486V14.3C118.52 14.78 118.622 15.122 118.826 15.326C119.03 15.518 119.384 15.614 119.888 15.614H121.094V17H119.618C118.706 17 118.022 16.79 117.566 16.37C117.11 15.95 116.882 15.26 116.882 14.3V8.486H115.604V7.136H116.882V4.652H118.52V7.136H121.094V8.486H118.52ZM123.547 12.032C123.547 11.024 123.751 10.142 124.159 9.386C124.567 8.618 125.125 8.024 125.833 7.604C126.553 7.184 127.351 6.974 128.227 6.974C129.091 6.974 129.841 7.16 130.477 7.532C131.113 7.904 131.587 8.372 131.899 8.936V7.136H133.555V17H131.899V15.164C131.575 15.74 131.089 16.22 130.441 16.604C129.805 16.976 129.061 17.162 128.209 17.162C127.333 17.162 126.541 16.946 125.833 16.514C125.125 16.082 124.567 15.476 124.159 14.696C123.751 13.916 123.547 13.028 123.547 12.032ZM131.899 12.05C131.899 11.306 131.749 10.658 131.449 10.106C131.149 9.554 130.741 9.134 130.225 8.846C129.721 8.546 129.163 8.396 128.551 8.396C127.939 8.396 127.381 8.54 126.877 8.828C126.373 9.116 125.971 9.536 125.671 10.088C125.371 10.64 125.221 11.288 125.221 12.032C125.221 12.788 125.371 13.448 125.671 14.012C125.971 14.564 126.373 14.99 126.877 15.29C127.381 15.578 127.939 15.722 128.551 15.722C129.163 15.722 129.721 15.578 130.225 15.29C130.741 14.99 131.149 14.564 131.449 14.012C131.749 13.448 131.899 12.794 131.899 12.05ZM140.895 17.162C140.139 17.162 139.461 17.036 138.861 16.784C138.261 16.52 137.787 16.16 137.439 15.704C137.091 15.236 136.899 14.702 136.863 14.102H138.555C138.603 14.594 138.831 14.996 139.239 15.308C139.659 15.62 140.205 15.776 140.877 15.776C141.501 15.776 141.993 15.638 142.353 15.362C142.713 15.086 142.893 14.738 142.893 14.318C142.893 13.886 142.701 13.568 142.317 13.364C141.933 13.148 141.339 12.938 140.535 12.734C139.803 12.542 139.203 12.35 138.735 12.158C138.279 11.954 137.883 11.66 137.547 11.276C137.223 10.88 137.061 10.364 137.061 9.728C137.061 9.224 137.211 8.762 137.511 8.342C137.811 7.922 138.237 7.592 138.789 7.352C139.341 7.1 139.971 6.974 140.679 6.974C141.771 6.974 142.653 7.25 143.325 7.802C143.997 8.354 144.357 9.11 144.405 10.07H142.767C142.731 9.554 142.521 9.14 142.137 8.828C141.765 8.516 141.261 8.36 140.625 8.36C140.037 8.36 139.569 8.486 139.221 8.738C138.873 8.99 138.699 9.32 138.699 9.728C138.699 10.052 138.801 10.322 139.005 10.538C139.221 10.742 139.485 10.91 139.797 11.042C140.121 11.162 140.565 11.3 141.129 11.456C141.837 11.648 142.413 11.84 142.857 12.032C143.301 12.212 143.679 12.488 143.991 12.86C144.315 13.232 144.483 13.718 144.495 14.318C144.495 14.858 144.345 15.344 144.045 15.776C143.745 16.208 143.319 16.55 142.767 16.802C142.227 17.042 141.603 17.162 140.895 17.162ZM153.395 17L149.525 12.644V17H147.887V3.68H149.525V11.51L153.323 7.136H155.609L150.965 12.05L155.627 17H153.395Z" fill="#0B0824"/>
</svg>
