<svg width="17" height="17" viewBox="0 0 17 17" fill="none" xmlns="http://www.w3.org/2000/svg">
<path fill-rule="evenodd" clip-rule="evenodd" d="M8.5 17C9.61624 17 10.7215 16.7801 11.7528 16.353C12.7841 15.9258 13.7211 15.2997 14.5104 14.5104C15.2997 13.7211 15.9258 12.7841 16.353 11.7528C16.7801 10.7215 17 9.61624 17 8.5C17 7.38376 16.7801 6.27846 16.353 5.24719C15.9258 4.21592 15.2997 3.27889 14.5104 2.48959C13.7211 1.70029 12.7841 1.07419 11.7528 0.647024C10.7215 0.219859 9.61624 -1.66332e-08 8.5 0C6.24566 3.35923e-08 4.08365 0.895533 2.48959 2.48959C0.895533 4.08365 0 6.24566 0 8.5C0 10.7543 0.895533 12.9163 2.48959 14.5104C4.08365 16.1045 6.24566 17 8.5 17ZM8.28089 11.9378L13.0031 6.27111L11.5524 5.06222L7.49133 9.93461L5.38994 7.83228L4.0545 9.16772L6.88783 12.0011L7.61883 12.7321L8.28089 11.9378Z" fill="#0E162F"/>
</svg>
