<svg width="438" height="111" viewBox="0 0 438 111" fill="none" xmlns="http://www.w3.org/2000/svg">
<g filter="url(#filter0_d_103_4042)">
<path fill-rule="evenodd" clip-rule="evenodd" d="M54 0C26.3858 0 4 22.3857 4 50V52.4138C4 80.028 26.3858 102.414 54 102.414H56.4138C84.028 102.414 106.414 80.028 106.414 52.4138V50C106.414 22.3858 84.028 0 56.4138 0H54ZM55.2069 8.85057C31.8141 8.85057 12.8506 27.8141 12.8506 51.2069C12.8506 74.5996 31.8141 93.5632 55.2069 93.5632C78.5996 93.5632 97.5632 74.5996 97.5632 51.2069C97.5632 27.8141 78.5996 8.85057 55.2069 8.85057Z" fill="url(#paint0_linear_103_4042)"/>
</g>
<path d="M52.9338 62.7319L53.2872 63.0852L53.6407 62.7319L105.764 10.6314C105.765 10.6303 105.766 10.6293 105.767 10.6283C106.628 9.79913 107.78 9.34036 108.975 9.35074C110.172 9.36114 111.317 9.84101 112.163 10.6869C113.009 11.5328 113.489 12.6771 113.5 13.8733C113.51 15.068 113.051 16.219 112.222 17.0792C112.221 17.0802 112.22 17.0813 112.219 17.0823L56.5145 72.7618C56.5145 72.7618 56.5144 72.7619 56.5144 72.7619C55.6585 73.6172 54.4977 74.0977 53.2872 74.0977C52.0768 74.0977 50.916 73.6172 50.0601 72.7619C50.06 72.7619 50.06 72.7618 50.06 72.7618L27.2726 49.9845C26.443 49.1244 25.984 47.9732 25.9944 46.7785C26.0048 45.5823 26.4848 44.438 27.3311 43.5921C28.1774 42.7462 29.3223 42.2663 30.5192 42.2559C31.7147 42.2456 32.8665 42.7044 33.727 43.5337L52.9338 62.7319Z" fill="url(#paint1_linear_103_4042)" stroke="url(#paint2_linear_103_4042)"/>
<path d="M134.744 18.4029C137.923 18.4029 140.387 19.1709 142.136 20.7069C143.907 22.2429 144.792 24.3762 144.792 27.1069C144.792 27.9602 144.717 28.7922 144.568 29.6029C144.163 31.8856 143.331 33.8696 142.072 35.5549C140.835 37.2189 139.245 38.4989 137.304 39.3949C135.384 40.2696 133.208 40.7069 130.776 40.7069H123.832L127.8 18.4029H134.744ZM131.192 38.4669C134.051 38.4669 136.376 37.6882 138.168 36.1309C139.96 34.5522 141.101 32.3762 141.592 29.6029C141.72 28.8349 141.784 28.1096 141.784 27.4269C141.784 25.3149 141.155 23.6829 139.896 22.5309C138.637 21.3576 136.781 20.7709 134.328 20.7709H130.296L127.16 38.4669H131.192ZM154.169 40.9949C152.697 40.9949 151.396 40.6962 150.265 40.0989C149.156 39.4802 148.292 38.6269 147.673 37.5389C147.054 36.4296 146.745 35.1496 146.745 33.6989C146.745 31.7149 147.204 29.9016 148.121 28.2589C149.038 26.5949 150.297 25.2829 151.897 24.3229C153.518 23.3629 155.321 22.8829 157.305 22.8829C158.777 22.8829 160.078 23.1922 161.209 23.8109C162.361 24.4082 163.246 25.2616 163.865 26.3709C164.505 27.4589 164.825 28.7389 164.825 30.2109C164.825 32.1949 164.356 34.0082 163.417 35.6509C162.478 37.2936 161.198 38.5949 159.577 39.5549C157.956 40.5149 156.153 40.9949 154.169 40.9949ZM154.521 38.5309C155.908 38.5309 157.156 38.1576 158.265 37.4109C159.374 36.6429 160.238 35.6402 160.857 34.4029C161.497 33.1442 161.817 31.8002 161.817 30.3709C161.817 28.7496 161.348 27.5122 160.409 26.6589C159.47 25.7842 158.297 25.3469 156.889 25.3469C155.502 25.3469 154.265 25.7309 153.177 26.4989C152.089 27.2456 151.246 28.2482 150.649 29.5069C150.052 30.7656 149.753 32.1202 149.753 33.5709C149.753 35.1496 150.201 36.3762 151.097 37.2509C151.993 38.1042 153.134 38.5309 154.521 38.5309ZM178.638 22.8509C180.451 22.8509 181.902 23.3416 182.99 24.3229C184.078 25.2829 184.622 26.6909 184.622 28.5469C184.622 29.2296 184.568 29.8376 184.462 30.3709L182.638 40.7069H179.758L181.518 30.7869C181.603 30.3389 181.646 29.8696 181.646 29.3789C181.646 28.0776 181.283 27.0856 180.558 26.4029C179.854 25.7202 178.862 25.3789 177.582 25.3789C176.046 25.3789 174.734 25.8589 173.646 26.8189C172.579 27.7789 171.886 29.1762 171.566 31.0109V30.9469L169.838 40.7069H166.926L170.03 23.1709H172.942L172.494 25.6989C173.219 24.7816 174.126 24.0776 175.214 23.5869C176.302 23.0962 177.443 22.8509 178.638 22.8509ZM192.259 18.4029H195.523L191.171 25.6669H189.091L192.259 18.4029ZM198.811 35.9069C198.747 36.2269 198.715 36.5042 198.715 36.7389C198.715 37.2722 198.875 37.6562 199.195 37.8909C199.536 38.1256 200.08 38.2429 200.827 38.2429H202.97L202.523 40.7069H199.899C198.512 40.7069 197.467 40.4402 196.763 39.9069C196.08 39.3736 195.739 38.4989 195.739 37.2829C195.739 36.8136 195.781 36.3549 195.867 35.9069L197.691 25.5709H195.451L195.867 23.1709H198.139L198.907 18.7549H201.851L201.083 23.1709H205.627L205.211 25.5709H200.635L198.811 35.9069ZM221.022 26.4029C221.79 25.4002 222.803 24.5682 224.062 23.9069C225.321 23.2242 226.697 22.8829 228.19 22.8829C229.555 22.8829 230.761 23.1709 231.806 23.7469C232.873 24.3016 233.694 25.1122 234.27 26.1789C234.846 27.2242 235.134 28.4616 235.134 29.8909C235.134 30.5096 235.07 31.1709 234.942 31.8749C234.622 33.6456 233.971 35.2242 232.99 36.6109C232.03 37.9976 230.846 39.0749 229.438 39.8429C228.051 40.6109 226.579 40.9949 225.022 40.9949C223.529 40.9949 222.27 40.6642 221.246 40.0029C220.243 39.3202 219.518 38.4776 219.07 37.4749L217.054 49.0269H214.142L218.686 23.1709H221.598L221.022 26.4029ZM231.966 31.8749C232.051 31.4269 232.094 30.9362 232.094 30.4029C232.094 28.8456 231.635 27.6296 230.718 26.7549C229.801 25.8589 228.617 25.4109 227.166 25.4109C226.099 25.4109 225.065 25.6776 224.062 26.2109C223.059 26.7229 222.195 27.4802 221.47 28.4829C220.766 29.4642 220.297 30.6056 220.062 31.9069C219.977 32.3549 219.934 32.8456 219.934 33.3789C219.934 34.9362 220.393 36.1736 221.31 37.0909C222.249 37.9869 223.433 38.4349 224.862 38.4349C225.95 38.4349 226.985 38.1789 227.966 37.6669C228.969 37.1336 229.822 36.3762 230.526 35.3949C231.251 34.3922 231.731 33.2189 231.966 31.8749ZM242.647 26.4989C243.351 25.3469 244.236 24.4509 245.303 23.8109C246.37 23.1709 247.586 22.8509 248.951 22.8509L248.407 25.8589H247.639C246.124 25.8589 244.855 26.2642 243.831 27.0749C242.828 27.8856 242.156 29.2509 241.815 31.1709L240.119 40.7069H237.207L240.311 23.1709H243.223L242.647 26.4989ZM256.857 40.9949C255.385 40.9949 254.083 40.6962 252.953 40.0989C251.843 39.4802 250.979 38.6269 250.361 37.5389C249.742 36.4296 249.433 35.1496 249.433 33.6989C249.433 31.7149 249.891 29.9016 250.809 28.2589C251.726 26.5949 252.985 25.2829 254.585 24.3229C256.206 23.3629 258.009 22.8829 259.993 22.8829C261.465 22.8829 262.766 23.1922 263.897 23.8109C265.049 24.4082 265.934 25.2616 266.553 26.3709C267.193 27.4589 267.513 28.7389 267.513 30.2109C267.513 32.1949 267.043 34.0082 266.105 35.6509C265.166 37.2936 263.886 38.5949 262.265 39.5549C260.643 40.5149 258.841 40.9949 256.857 40.9949ZM257.209 38.5309C258.595 38.5309 259.843 38.1576 260.953 37.4109C262.062 36.6429 262.926 35.6402 263.545 34.4029C264.185 33.1442 264.505 31.8002 264.505 30.3709C264.505 28.7496 264.035 27.5122 263.097 26.6589C262.158 25.7842 260.985 25.3469 259.577 25.3469C258.19 25.3469 256.953 25.7309 255.865 26.4989C254.777 27.2456 253.934 28.2482 253.337 29.5069C252.739 30.7656 252.441 32.1202 252.441 33.5709C252.441 35.1496 252.889 36.3762 253.785 37.2509C254.681 38.1042 255.822 38.5309 257.209 38.5309ZM270.061 31.9069C270.381 30.0936 271.021 28.5149 271.981 27.1709C272.963 25.8056 274.168 24.7496 275.597 24.0029C277.027 23.2562 278.573 22.8829 280.237 22.8829C282.392 22.8829 284.067 23.4056 285.261 24.4509C286.477 25.4962 287.149 26.9469 287.277 28.8029H284.141C284.035 27.7362 283.597 26.8936 282.829 26.2749C282.083 25.6562 281.069 25.3469 279.789 25.3469C278.125 25.3469 276.675 25.9229 275.437 27.0749C274.221 28.2056 273.432 29.8162 273.069 31.9069C272.963 32.6109 272.909 33.1976 272.909 33.6669C272.909 35.2242 273.325 36.4296 274.157 37.2829C274.989 38.1149 276.099 38.5309 277.485 38.5309C278.765 38.5309 279.875 38.2322 280.813 37.6349C281.773 37.0376 282.509 36.1842 283.021 35.0749H286.157C285.389 36.8669 284.205 38.3069 282.605 39.3949C281.005 40.4616 279.149 40.9949 277.037 40.9949C274.84 40.9949 273.091 40.3656 271.789 39.1069C270.509 37.8482 269.869 36.1309 269.869 33.9549C269.869 33.2936 269.933 32.6109 270.061 31.9069ZM294.491 26.4989C295.195 25.3469 296.08 24.4509 297.147 23.8109C298.213 23.1709 299.429 22.8509 300.795 22.8509L300.251 25.8589H299.483C297.968 25.8589 296.699 26.2642 295.675 27.0749C294.672 27.8856 294 29.2509 293.659 31.1709L291.963 40.7069H289.051L292.155 23.1709H295.067L294.491 26.4989ZM301.436 31.8749C301.756 30.0829 302.396 28.5149 303.356 27.1709C304.338 25.8056 305.522 24.7496 306.908 24.0029C308.316 23.2562 309.81 22.8829 311.388 22.8829C312.924 22.8829 314.194 23.2136 315.196 23.8749C316.199 24.5362 316.892 25.3682 317.276 26.3709L317.852 23.1709H320.796L317.692 40.7069H314.748L315.356 37.4429C314.588 38.4669 313.575 39.3202 312.316 40.0029C311.058 40.6642 309.671 40.9949 308.156 40.9949C306.791 40.9949 305.586 40.7069 304.54 40.1309C303.495 39.5336 302.684 38.6909 302.108 37.6029C301.532 36.5149 301.244 35.2562 301.244 33.8269C301.244 33.1869 301.308 32.5362 301.436 31.8749ZM316.316 31.9069C316.402 31.4589 316.444 30.9789 316.444 30.4669C316.444 28.9096 315.975 27.6829 315.036 26.7869C314.119 25.8696 312.946 25.4109 311.516 25.4109C310.428 25.4109 309.383 25.6669 308.38 26.1789C307.399 26.6909 306.556 27.4376 305.852 28.4189C305.148 29.4002 304.679 30.5522 304.444 31.8749C304.359 32.3229 304.316 32.8136 304.316 33.3469C304.316 34.9256 304.775 36.1736 305.692 37.0909C306.61 37.9869 307.783 38.4349 309.212 38.4349C310.3 38.4349 311.335 38.1789 312.316 37.6669C313.319 37.1336 314.172 36.3762 314.876 35.3949C315.602 34.3922 316.082 33.2296 316.316 31.9069ZM328.789 40.9949C326.955 40.9949 325.451 40.5576 324.277 39.6829C323.104 38.8082 322.517 37.6349 322.517 36.1629C322.517 35.8856 322.528 35.6829 322.549 35.5549H325.397C325.312 36.4722 325.579 37.2189 326.197 37.7949C326.837 38.3709 327.755 38.6589 328.949 38.6589C330.144 38.6589 331.104 38.4349 331.829 37.9869C332.576 37.5176 332.949 36.8669 332.949 36.0349C332.949 35.3309 332.651 34.7762 332.053 34.3709C331.456 33.9656 330.539 33.5282 329.301 33.0589C328.213 32.6536 327.317 32.2696 326.613 31.9069C325.909 31.5442 325.312 31.0429 324.821 30.4029C324.331 29.7416 324.085 28.9096 324.085 27.9069C324.085 26.9256 324.363 26.0509 324.917 25.2829C325.493 24.5149 326.283 23.9282 327.285 23.5229C328.309 23.0962 329.472 22.8829 330.773 22.8829C332.565 22.8829 334.037 23.3309 335.189 24.2269C336.341 25.1229 336.917 26.2962 336.917 27.7469C336.917 28.0242 336.907 28.2376 336.885 28.3869H334.101L334.133 28.0029C334.133 27.1496 333.803 26.4776 333.141 25.9869C332.501 25.4749 331.648 25.2189 330.581 25.2189C329.536 25.2189 328.672 25.4536 327.989 25.9229C327.328 26.3922 326.997 27.0216 326.997 27.8109C326.997 28.5576 327.307 29.1442 327.925 29.5709C328.544 29.9976 329.504 30.4669 330.805 30.9789C331.893 31.4056 332.768 31.8002 333.429 32.1629C334.091 32.5042 334.656 32.9842 335.125 33.6029C335.595 34.2216 335.829 35.0002 335.829 35.9389C335.829 36.9629 335.52 37.8589 334.901 38.6269C334.304 39.3949 333.472 39.9816 332.405 40.3869C331.339 40.7922 330.133 40.9949 328.789 40.9949ZM343.748 35.9069C343.684 36.2269 343.652 36.5042 343.652 36.7389C343.652 37.2722 343.812 37.6562 344.132 37.8909C344.473 38.1256 345.017 38.2429 345.764 38.2429H347.908L347.46 40.7069H344.836C343.449 40.7069 342.404 40.4402 341.7 39.9069C341.017 39.3736 340.676 38.4989 340.676 37.2829C340.676 36.8136 340.719 36.3549 340.804 35.9069L342.628 25.5709H340.388L340.804 23.1709H343.076L343.844 18.7549H346.788L346.02 23.1709H350.564L350.148 25.5709H345.572L343.748 35.9069ZM356.076 20.3229C355.607 20.3229 355.212 20.1736 354.892 19.8749C354.594 19.5549 354.444 19.1602 354.444 18.6909C354.444 18.0509 354.679 17.5069 355.148 17.0589C355.618 16.5896 356.162 16.3549 356.78 16.3549C357.271 16.3549 357.666 16.5042 357.964 16.8029C358.263 17.1016 358.412 17.4962 358.412 17.9869C358.412 18.6269 358.178 19.1816 357.708 19.6509C357.239 20.0989 356.695 20.3229 356.076 20.3229ZM357.004 23.1709L353.9 40.7069H350.988L354.092 23.1709H357.004ZM370.575 22.8509C372.389 22.8509 373.839 23.3416 374.927 24.3229C376.015 25.2829 376.559 26.6909 376.559 28.5469C376.559 29.2296 376.506 29.8376 376.399 30.3709L374.575 40.7069H371.695L373.455 30.7869C373.541 30.3389 373.583 29.8696 373.583 29.3789C373.583 28.0776 373.221 27.0856 372.495 26.4029C371.791 25.7202 370.799 25.3789 369.519 25.3789C367.983 25.3789 366.671 25.8589 365.583 26.8189C364.517 27.7789 363.823 29.1762 363.503 31.0109V30.9469L361.775 40.7069H358.863L361.967 23.1709H364.879L364.431 25.6989C365.157 24.7816 366.063 24.0776 367.151 23.5869C368.239 23.0962 369.381 22.8509 370.575 22.8509ZM379.78 31.8749C380.1 30.0829 380.74 28.5149 381.7 27.1709C382.681 25.8056 383.865 24.7496 385.252 24.0029C386.66 23.2562 388.153 22.8829 389.732 22.8829C391.268 22.8829 392.537 23.2136 393.54 23.8749C394.543 24.5362 395.236 25.3682 395.62 26.3709L396.196 23.1709H399.14L396.036 40.7069H393.092L393.7 37.4429C392.932 38.4669 391.919 39.3202 390.66 40.0029C389.401 40.6642 388.015 40.9949 386.5 40.9949C385.135 40.9949 383.929 40.7069 382.884 40.1309C381.839 39.5336 381.028 38.6909 380.452 37.6029C379.876 36.5149 379.588 35.2562 379.588 33.8269C379.588 33.1869 379.652 32.5362 379.78 31.8749ZM394.66 31.9069C394.745 31.4589 394.788 30.9789 394.788 30.4669C394.788 28.9096 394.319 27.6829 393.38 26.7869C392.463 25.8696 391.289 25.4109 389.86 25.4109C388.772 25.4109 387.727 25.6669 386.724 26.1789C385.743 26.6909 384.9 27.4376 384.196 28.4189C383.492 29.4002 383.023 30.5522 382.788 31.8749C382.703 32.3229 382.66 32.8136 382.66 33.3469C382.66 34.9256 383.119 36.1736 384.036 37.0909C384.953 37.9869 386.127 38.4349 387.556 38.4349C388.644 38.4349 389.679 38.1789 390.66 37.6669C391.663 37.1336 392.516 36.3762 393.22 35.3949C393.945 34.3922 394.425 33.2296 394.66 31.9069ZM405.373 35.9069C405.309 36.2269 405.277 36.5042 405.277 36.7389C405.277 37.2722 405.437 37.6562 405.757 37.8909C406.098 38.1256 406.642 38.2429 407.389 38.2429H409.533L409.085 40.7069H406.461C405.074 40.7069 404.029 40.4402 403.325 39.9069C402.642 39.3736 402.301 38.4989 402.301 37.2829C402.301 36.8136 402.344 36.3549 402.429 35.9069L404.253 25.5709H402.013L402.429 23.1709H404.701L405.469 18.7549H408.413L407.645 23.1709H412.189L411.773 25.5709H407.197L405.373 35.9069ZM423.333 22.8829C424.805 22.8829 426.075 23.1709 427.141 23.7469C428.229 24.3016 429.051 25.0909 429.605 26.1149C430.181 27.1176 430.469 28.2696 430.469 29.5709C430.469 30.0189 430.416 30.5629 430.309 31.2029C430.224 31.7576 430.085 32.3336 429.893 32.9309H415.877C415.835 33.3576 415.813 33.6669 415.813 33.8589C415.813 35.3309 416.251 36.4829 417.125 37.3149C418.021 38.1256 419.184 38.5309 420.613 38.5309C421.872 38.5309 422.971 38.2429 423.909 37.6669C424.869 37.0696 425.595 36.2802 426.085 35.2989H429.221C428.453 36.9842 427.269 38.3602 425.669 39.4269C424.091 40.4722 422.256 40.9949 420.165 40.9949C417.968 40.9949 416.197 40.3656 414.853 39.1069C413.531 37.8269 412.869 36.0882 412.869 33.8909C412.869 33.2722 412.933 32.6109 413.061 31.9069C413.381 30.0936 414.032 28.5042 415.013 27.1389C415.995 25.7736 417.2 24.7282 418.629 24.0029C420.08 23.2562 421.648 22.8829 423.333 22.8829ZM427.365 30.8189C427.429 30.3922 427.461 29.9976 427.461 29.6349C427.461 28.2696 427.024 27.2136 426.149 26.4669C425.296 25.7202 424.176 25.3469 422.789 25.3469C421.296 25.3469 419.941 25.8376 418.725 26.8189C417.509 27.7789 416.688 29.1122 416.261 30.8189H427.365ZM436.169 36.6749L431.081 45.2829H429.129L432.969 36.6749H436.169ZM136.86 57.5789C139.188 57.5789 141.192 57.9869 142.872 58.8029C144.576 59.5949 145.872 60.7349 146.76 62.2229C147.672 63.7109 148.128 65.4749 148.128 67.5149C148.128 68.4269 148.044 69.3149 147.876 70.1789C147.444 72.6989 146.508 74.9069 145.068 76.8029C143.652 78.6749 141.852 80.1269 139.668 81.1589C137.484 82.1909 135.06 82.7069 132.396 82.7069H123.612L128.076 57.5789H136.86ZM132.972 78.6029C135.612 78.6029 137.772 77.8589 139.452 76.3709C141.156 74.8829 142.248 72.8189 142.728 70.1789C142.848 69.3869 142.908 68.7029 142.908 68.1269C142.908 66.1109 142.308 64.5509 141.108 63.4469C139.932 62.3429 138.204 61.7909 135.924 61.7909H132.396L129.444 78.6029H132.972ZM158.345 83.0309C156.641 83.0309 155.129 82.6829 153.809 81.9869C152.513 81.2909 151.505 80.3069 150.785 79.0349C150.065 77.7629 149.705 76.2989 149.705 74.6429C149.705 72.3869 150.233 70.3349 151.289 68.4869C152.369 66.6149 153.833 65.1389 155.681 64.0589C157.553 62.9789 159.629 62.4389 161.909 62.4389C163.613 62.4389 165.125 62.7989 166.445 63.5189C167.789 64.2149 168.821 65.1989 169.541 66.4709C170.285 67.7429 170.657 69.2069 170.657 70.8629C170.657 73.1429 170.117 75.2069 169.037 77.0549C167.957 78.9029 166.469 80.3669 164.573 81.4469C162.701 82.5029 160.625 83.0309 158.345 83.0309ZM159.029 78.7109C160.229 78.7109 161.321 78.3629 162.305 77.6669C163.289 76.9709 164.057 76.0469 164.609 74.8949C165.161 73.7429 165.437 72.5309 165.437 71.2589C165.437 69.8189 165.029 68.7149 164.213 67.9469C163.421 67.1549 162.413 66.7589 161.189 66.7589C159.965 66.7589 158.873 67.1069 157.913 67.8029C156.977 68.4989 156.245 69.4349 155.717 70.6109C155.189 71.7629 154.925 72.9869 154.925 74.2829C154.925 75.6989 155.297 76.7909 156.041 77.5589C156.809 78.3269 157.805 78.7109 159.029 78.7109ZM191.511 57.5789L187.083 82.7069H182.007L186.471 57.5789H191.511ZM199.01 76.5509C198.986 76.6949 198.974 76.8869 198.974 77.1269C198.974 77.6069 199.106 77.9549 199.37 78.1709C199.658 78.3629 200.126 78.4589 200.774 78.4589H203.15L202.394 82.7069H199.19C195.59 82.7069 193.79 81.2069 193.79 78.2069C193.79 77.6309 193.838 77.0669 193.934 76.5149L195.626 66.9029H193.25L193.97 62.7629H196.382L197.246 57.8309H202.322L201.458 62.7629H205.886L205.166 66.9029H200.702L199.01 76.5509ZM217.035 57.1469L213.399 74.5349H209.115L211.599 57.1469H217.035ZM209.871 82.9589C209.079 82.9589 208.443 82.7309 207.963 82.2749C207.483 81.8189 207.243 81.2429 207.243 80.5469C207.243 79.5869 207.603 78.7709 208.323 78.0989C209.067 77.4029 209.931 77.0549 210.915 77.0549C211.707 77.0549 212.331 77.2829 212.787 77.7389C213.267 78.1709 213.507 78.7469 213.507 79.4669C213.507 80.4269 213.147 81.2549 212.427 81.9509C211.707 82.6229 210.855 82.9589 209.871 82.9589Z" fill="black"/>
<defs>
<filter id="filter0_d_103_4042" x="0" y="0" width="110.414" height="110.414" filterUnits="userSpaceOnUse" color-interpolation-filters="sRGB">
<feFlood flood-opacity="0" result="BackgroundImageFix"/>
<feColorMatrix in="SourceAlpha" type="matrix" values="0 0 0 0 0 0 0 0 0 0 0 0 0 0 0 0 0 0 127 0" result="hardAlpha"/>
<feOffset dy="4"/>
<feGaussianBlur stdDeviation="2"/>
<feComposite in2="hardAlpha" operator="out"/>
<feColorMatrix type="matrix" values="0 0 0 0 0 0 0 0 0 0 0 0 0 0 0 0 0 0 0.25 0"/>
<feBlend mode="normal" in2="BackgroundImageFix" result="effect1_dropShadow_103_4042"/>
<feBlend mode="normal" in="SourceGraphic" in2="effect1_dropShadow_103_4042" result="shape"/>
</filter>
<linearGradient id="paint0_linear_103_4042" x1="55.2069" y1="0" x2="55.2069" y2="102.414" gradientUnits="userSpaceOnUse">
<stop stop-color="#2D4595"/>
<stop offset="1" stop-color="#0E162F"/>
</linearGradient>
<linearGradient id="paint1_linear_103_4042" x1="69.7471" y1="8.85057" x2="69.7471" y2="74.5977" gradientUnits="userSpaceOnUse">
<stop stop-color="#2D4595"/>
<stop offset="1" stop-color="#0E162F"/>
</linearGradient>
<linearGradient id="paint2_linear_103_4042" x1="69.7471" y1="8.85057" x2="69.7471" y2="74.5977" gradientUnits="userSpaceOnUse">
<stop offset="0.225" stop-color="#2D4595"/>
<stop offset="0.825" stop-color="#0E162F"/>
</linearGradient>
</defs>
</svg>
