<svg width="100" height="50" viewBox="0 0 100 50" fill="none" xmlns="http://www.w3.org/2000/svg">
<g filter="url(#filter0_d_80_3613)">
<rect x="10" y="4" width="80" height="30" rx="15" fill="url(#paint0_linear_80_3613)"/>
</g>
<path d="M36.9952 23.084C36.3792 23.084 35.8272 22.984 35.3392 22.784C34.8512 22.584 34.4592 22.288 34.1632 21.896C33.8752 21.504 33.7232 21.032 33.7072 20.48H35.8912C35.9232 20.792 36.0312 21.032 36.2152 21.2C36.3992 21.36 36.6392 21.44 36.9352 21.44C37.2392 21.44 37.4792 21.372 37.6552 21.236C37.8312 21.092 37.9192 20.896 37.9192 20.648C37.9192 20.44 37.8472 20.268 37.7032 20.132C37.5672 19.996 37.3952 19.884 37.1872 19.796C36.9872 19.708 36.6992 19.608 36.3232 19.496C35.7792 19.328 35.3352 19.16 34.9912 18.992C34.6472 18.824 34.3512 18.576 34.1032 18.248C33.8552 17.92 33.7312 17.492 33.7312 16.964C33.7312 16.18 34.0152 15.568 34.5832 15.128C35.1512 14.68 35.8912 14.456 36.8032 14.456C37.7312 14.456 38.4792 14.68 39.0472 15.128C39.6152 15.568 39.9192 16.184 39.9592 16.976H37.7392C37.7232 16.704 37.6232 16.492 37.4392 16.34C37.2552 16.18 37.0192 16.1 36.7312 16.1C36.4832 16.1 36.2832 16.168 36.1312 16.304C35.9792 16.432 35.9032 16.62 35.9032 16.868C35.9032 17.14 36.0312 17.352 36.2872 17.504C36.5432 17.656 36.9432 17.82 37.4872 17.996C38.0312 18.18 38.4712 18.356 38.8072 18.524C39.1512 18.692 39.4472 18.936 39.6952 19.256C39.9432 19.576 40.0672 19.988 40.0672 20.492C40.0672 20.972 39.9432 21.408 39.6952 21.8C39.4552 22.192 39.1032 22.504 38.6392 22.736C38.1752 22.968 37.6272 23.084 36.9952 23.084ZM41.642 19.64C41.642 18.952 41.77 18.348 42.026 17.828C42.29 17.308 42.646 16.908 43.094 16.628C43.542 16.348 44.042 16.208 44.594 16.208C45.066 16.208 45.478 16.304 45.83 16.496C46.19 16.688 46.466 16.94 46.658 17.252V16.304H48.71V23H46.658V22.052C46.458 22.364 46.178 22.616 45.818 22.808C45.466 23 45.054 23.096 44.582 23.096C44.038 23.096 43.542 22.956 43.094 22.676C42.646 22.388 42.29 21.984 42.026 21.464C41.77 20.936 41.642 20.328 41.642 19.64ZM46.658 19.652C46.658 19.14 46.514 18.736 46.226 18.44C45.946 18.144 45.602 17.996 45.194 17.996C44.786 17.996 44.438 18.144 44.15 18.44C43.87 18.728 43.73 19.128 43.73 19.64C43.73 20.152 43.87 20.56 44.15 20.864C44.438 21.16 44.786 21.308 45.194 21.308C45.602 21.308 45.946 21.16 46.226 20.864C46.514 20.568 46.658 20.164 46.658 19.652ZM53.9265 21.08L55.3785 16.304H57.5625L55.1865 23H52.6545L50.2785 16.304H52.4745L53.9265 21.08ZM65.4583 19.544C65.4583 19.736 65.4463 19.936 65.4223 20.144H60.7783C60.8103 20.56 60.9423 20.88 61.1743 21.104C61.4143 21.32 61.7063 21.428 62.0503 21.428C62.5623 21.428 62.9183 21.212 63.1183 20.78H65.3023C65.1903 21.22 64.9863 21.616 64.6903 21.968C64.4023 22.32 64.0383 22.596 63.5983 22.796C63.1583 22.996 62.6663 23.096 62.1223 23.096C61.4663 23.096 60.8823 22.956 60.3703 22.676C59.8583 22.396 59.4583 21.996 59.1703 21.476C58.8823 20.956 58.7383 20.348 58.7383 19.652C58.7383 18.956 58.8783 18.348 59.1583 17.828C59.4463 17.308 59.8463 16.908 60.3583 16.628C60.8703 16.348 61.4583 16.208 62.1223 16.208C62.7703 16.208 63.3463 16.344 63.8503 16.616C64.3543 16.888 64.7463 17.276 65.0263 17.78C65.3143 18.284 65.4583 18.872 65.4583 19.544ZM63.3583 19.004C63.3583 18.652 63.2383 18.372 62.9983 18.164C62.7583 17.956 62.4583 17.852 62.0983 17.852C61.7543 17.852 61.4623 17.952 61.2223 18.152C60.9903 18.352 60.8463 18.636 60.7903 19.004H63.3583Z" fill="#F8F8F8"/>
<defs>
<filter id="filter0_d_80_3613" x="0" y="0" width="100" height="50" filterUnits="userSpaceOnUse" color-interpolation-filters="sRGB">
<feFlood flood-opacity="0" result="BackgroundImageFix"/>
<feColorMatrix in="SourceAlpha" type="matrix" values="0 0 0 0 0 0 0 0 0 0 0 0 0 0 0 0 0 0 127 0" result="hardAlpha"/>
<feOffset dy="6"/>
<feGaussianBlur stdDeviation="5"/>
<feComposite in2="hardAlpha" operator="out"/>
<feColorMatrix type="matrix" values="0 0 0 0 0 0 0 0 0 0 0 0 0 0 0 0 0 0 0.15 0"/>
<feBlend mode="normal" in2="BackgroundImageFix" result="effect1_dropShadow_80_3613"/>
<feBlend mode="normal" in="SourceGraphic" in2="effect1_dropShadow_80_3613" result="shape"/>
</filter>
<linearGradient id="paint0_linear_80_3613" x1="90" y1="-2.96429" x2="-3.09304" y2="6.9125" gradientUnits="userSpaceOnUse">
<stop stop-color="#0B0824"/>
<stop offset="0.6" stop-color="#2D4595"/>
<stop offset="1" stop-color="#2D4595"/>
</linearGradient>
</defs>
</svg>
